%TF.GenerationSoftware,KiCad,Pcbnew,8.0.8*%
%TF.CreationDate,2025-02-10T18:58:52+09:00*%
%TF.ProjectId,OpenMPW-TR10,4f70656e-4d50-4572-9d54-5231302e6b69,rev?*%
%TF.SameCoordinates,Original*%
%TF.FileFunction,Copper,L1,Top*%
%TF.FilePolarity,Positive*%
%FSLAX46Y46*%
G04 Gerber Fmt 4.6, Leading zero omitted, Abs format (unit mm)*
G04 Created by KiCad (PCBNEW 8.0.8) date 2025-02-10 18:58:52*
%MOMM*%
%LPD*%
G01*
G04 APERTURE LIST*
%TA.AperFunction,SMDPad,CuDef*%
%ADD10O,0.101600X0.648400*%
%TD*%
%TA.AperFunction,SMDPad,CuDef*%
%ADD11O,0.648400X0.101600*%
%TD*%
%TA.AperFunction,SMDPad,CuDef*%
%ADD12R,3.500000X3.500000*%
%TD*%
%TA.AperFunction,ComponentPad*%
%ADD13R,1.700000X1.700000*%
%TD*%
%TA.AperFunction,ComponentPad*%
%ADD14O,1.700000X1.700000*%
%TD*%
%TA.AperFunction,ViaPad*%
%ADD15C,0.600000*%
%TD*%
%TA.AperFunction,Conductor*%
%ADD16C,0.101600*%
%TD*%
G04 APERTURE END LIST*
D10*
%TO.P,U1,1*%
%TO.N,Net-(J1-Pin_1)*%
X148984000Y-102175800D03*
%TO.P,U1,2*%
%TO.N,Net-(J1-Pin_2)*%
X149187200Y-102175800D03*
%TO.P,U1,3*%
%TO.N,Net-(J1-Pin_3)*%
X149390400Y-102175800D03*
%TO.P,U1,4*%
%TO.N,Net-(J1-Pin_4)*%
X149593600Y-102175800D03*
%TO.P,U1,5*%
%TO.N,Net-(J1-Pin_5)*%
X149796800Y-102175800D03*
%TO.P,U1,6*%
%TO.N,Net-(J1-Pin_6)*%
X150000000Y-102175800D03*
%TO.P,U1,7*%
%TO.N,Net-(J1-Pin_7)*%
X150203200Y-102175800D03*
%TO.P,U1,8*%
%TO.N,Net-(J1-Pin_8)*%
X150406400Y-102175800D03*
%TO.P,U1,9*%
%TO.N,Net-(J1-Pin_9)*%
X150609600Y-102175800D03*
%TO.P,U1,10*%
%TO.N,Net-(J1-Pin_10)*%
X150812800Y-102175800D03*
%TO.P,U1,11*%
%TO.N,Net-(J1-Pin_11)*%
X151016000Y-102175800D03*
D11*
%TO.P,U1,12*%
%TO.N,Net-(J2-Pin_1)*%
X152175800Y-101016000D03*
%TO.P,U1,13*%
%TO.N,Net-(J2-Pin_2)*%
X152175800Y-100812800D03*
%TO.P,U1,14*%
%TO.N,Net-(J2-Pin_3)*%
X152175800Y-100609600D03*
%TO.P,U1,15*%
%TO.N,Net-(J2-Pin_4)*%
X152175800Y-100406400D03*
%TO.P,U1,16*%
%TO.N,Net-(J2-Pin_5)*%
X152175800Y-100203200D03*
%TO.P,U1,17*%
%TO.N,Net-(J2-Pin_6)*%
X152175800Y-100000000D03*
%TO.P,U1,18*%
%TO.N,Net-(J2-Pin_7)*%
X152175800Y-99796800D03*
%TO.P,U1,19*%
%TO.N,Net-(J2-Pin_8)*%
X152175800Y-99593600D03*
%TO.P,U1,20*%
%TO.N,Net-(J2-Pin_9)*%
X152175800Y-99390400D03*
%TO.P,U1,21*%
%TO.N,Net-(J2-Pin_10)*%
X152175800Y-99187200D03*
%TO.P,U1,22*%
%TO.N,Net-(J2-Pin_11)*%
X152175800Y-98984000D03*
D10*
%TO.P,U1,23*%
%TO.N,Net-(J3-Pin_1)*%
X151016000Y-97824200D03*
%TO.P,U1,24*%
%TO.N,Net-(J3-Pin_2)*%
X150812800Y-97824200D03*
%TO.P,U1,25*%
%TO.N,Net-(J3-Pin_3)*%
X150609600Y-97824200D03*
%TO.P,U1,26*%
%TO.N,Net-(J3-Pin_4)*%
X150406400Y-97824200D03*
%TO.P,U1,27*%
%TO.N,Net-(J3-Pin_5)*%
X150203200Y-97824200D03*
%TO.P,U1,28*%
%TO.N,Net-(J3-Pin_6)*%
X150000000Y-97824200D03*
%TO.P,U1,29*%
%TO.N,Net-(J3-Pin_7)*%
X149796800Y-97824200D03*
%TO.P,U1,30*%
%TO.N,Net-(J3-Pin_8)*%
X149593600Y-97824200D03*
%TO.P,U1,31*%
%TO.N,Net-(J3-Pin_9)*%
X149390400Y-97824200D03*
%TO.P,U1,32*%
%TO.N,Net-(J3-Pin_10)*%
X149187200Y-97824200D03*
%TO.P,U1,33*%
%TO.N,Net-(J3-Pin_11)*%
X148984000Y-97824200D03*
D11*
%TO.P,U1,34*%
%TO.N,Net-(J4-Pin_1)*%
X147824200Y-98984000D03*
%TO.P,U1,35*%
%TO.N,Net-(J4-Pin_2)*%
X147824200Y-99187200D03*
%TO.P,U1,36*%
%TO.N,Net-(J4-Pin_3)*%
X147824200Y-99390400D03*
%TO.P,U1,37*%
%TO.N,Net-(J4-Pin_4)*%
X147824200Y-99593600D03*
%TO.P,U1,38*%
%TO.N,Net-(J4-Pin_5)*%
X147824200Y-99796800D03*
%TO.P,U1,39*%
%TO.N,Net-(J4-Pin_6)*%
X147824200Y-100000000D03*
%TO.P,U1,40*%
%TO.N,Net-(J4-Pin_7)*%
X147824200Y-100203200D03*
%TO.P,U1,41*%
%TO.N,Net-(J4-Pin_8)*%
X147824200Y-100406400D03*
%TO.P,U1,42*%
%TO.N,Net-(J4-Pin_9)*%
X147824200Y-100609600D03*
%TO.P,U1,43*%
%TO.N,Net-(J4-Pin_10)*%
X147824200Y-100812800D03*
%TO.P,U1,44*%
%TO.N,Net-(J4-Pin_11)*%
X147824200Y-101016000D03*
D12*
%TO.P,U1,45*%
%TO.N,Net-(J5-Pin_1)*%
X150000000Y-100000000D03*
%TD*%
D13*
%TO.P,J5,1,Pin_1*%
%TO.N,Net-(J5-Pin_1)*%
X137300000Y-122000000D03*
D14*
%TO.P,J5,2,Pin_2*%
X139840000Y-122000000D03*
%TD*%
D13*
%TO.P,J4,1,Pin_1*%
%TO.N,Net-(J4-Pin_1)*%
X133700000Y-87300000D03*
D14*
%TO.P,J4,2,Pin_2*%
%TO.N,Net-(J4-Pin_2)*%
X133700000Y-89840000D03*
%TO.P,J4,3,Pin_3*%
%TO.N,Net-(J4-Pin_3)*%
X133700000Y-92380000D03*
%TO.P,J4,4,Pin_4*%
%TO.N,Net-(J4-Pin_4)*%
X133700000Y-94920000D03*
%TO.P,J4,5,Pin_5*%
%TO.N,Net-(J4-Pin_5)*%
X133700000Y-97460000D03*
%TO.P,J4,6,Pin_6*%
%TO.N,Net-(J4-Pin_6)*%
X133700000Y-100000000D03*
%TO.P,J4,7,Pin_7*%
%TO.N,Net-(J4-Pin_7)*%
X133700000Y-102540000D03*
%TO.P,J4,8,Pin_8*%
%TO.N,Net-(J4-Pin_8)*%
X133700000Y-105080000D03*
%TO.P,J4,9,Pin_9*%
%TO.N,Net-(J4-Pin_9)*%
X133700000Y-107620000D03*
%TO.P,J4,10,Pin_10*%
%TO.N,Net-(J4-Pin_10)*%
X133700000Y-110160000D03*
%TO.P,J4,11,Pin_11*%
%TO.N,Net-(J4-Pin_11)*%
X133700000Y-112700000D03*
%TD*%
D13*
%TO.P,J2,1,Pin_1*%
%TO.N,Net-(J2-Pin_1)*%
X166300000Y-112700000D03*
D14*
%TO.P,J2,2,Pin_2*%
%TO.N,Net-(J2-Pin_2)*%
X166300000Y-110160000D03*
%TO.P,J2,3,Pin_3*%
%TO.N,Net-(J2-Pin_3)*%
X166300000Y-107620000D03*
%TO.P,J2,4,Pin_4*%
%TO.N,Net-(J2-Pin_4)*%
X166300000Y-105080000D03*
%TO.P,J2,5,Pin_5*%
%TO.N,Net-(J2-Pin_5)*%
X166300000Y-102540000D03*
%TO.P,J2,6,Pin_6*%
%TO.N,Net-(J2-Pin_6)*%
X166300000Y-100000000D03*
%TO.P,J2,7,Pin_7*%
%TO.N,Net-(J2-Pin_7)*%
X166300000Y-97460000D03*
%TO.P,J2,8,Pin_8*%
%TO.N,Net-(J2-Pin_8)*%
X166300000Y-94920000D03*
%TO.P,J2,9,Pin_9*%
%TO.N,Net-(J2-Pin_9)*%
X166300000Y-92380000D03*
%TO.P,J2,10,Pin_10*%
%TO.N,Net-(J2-Pin_10)*%
X166300000Y-89840000D03*
%TO.P,J2,11,Pin_11*%
%TO.N,Net-(J2-Pin_11)*%
X166300000Y-87300000D03*
%TD*%
D13*
%TO.P,J3,1,Pin_1*%
%TO.N,Net-(J3-Pin_1)*%
X162700000Y-83700000D03*
D14*
%TO.P,J3,2,Pin_2*%
%TO.N,Net-(J3-Pin_2)*%
X160160000Y-83700000D03*
%TO.P,J3,3,Pin_3*%
%TO.N,Net-(J3-Pin_3)*%
X157620000Y-83700000D03*
%TO.P,J3,4,Pin_4*%
%TO.N,Net-(J3-Pin_4)*%
X155080000Y-83700000D03*
%TO.P,J3,5,Pin_5*%
%TO.N,Net-(J3-Pin_5)*%
X152540000Y-83700000D03*
%TO.P,J3,6,Pin_6*%
%TO.N,Net-(J3-Pin_6)*%
X150000000Y-83700000D03*
%TO.P,J3,7,Pin_7*%
%TO.N,Net-(J3-Pin_7)*%
X147460000Y-83700000D03*
%TO.P,J3,8,Pin_8*%
%TO.N,Net-(J3-Pin_8)*%
X144920000Y-83700000D03*
%TO.P,J3,9,Pin_9*%
%TO.N,Net-(J3-Pin_9)*%
X142380000Y-83700000D03*
%TO.P,J3,10,Pin_10*%
%TO.N,Net-(J3-Pin_10)*%
X139840000Y-83700000D03*
%TO.P,J3,11,Pin_11*%
%TO.N,Net-(J3-Pin_11)*%
X137300000Y-83700000D03*
%TD*%
D13*
%TO.P,J1,1,Pin_1*%
%TO.N,Net-(J1-Pin_1)*%
X137300000Y-116300000D03*
D14*
%TO.P,J1,2,Pin_2*%
%TO.N,Net-(J1-Pin_2)*%
X139840000Y-116300000D03*
%TO.P,J1,3,Pin_3*%
%TO.N,Net-(J1-Pin_3)*%
X142380000Y-116300000D03*
%TO.P,J1,4,Pin_4*%
%TO.N,Net-(J1-Pin_4)*%
X144920000Y-116300000D03*
%TO.P,J1,5,Pin_5*%
%TO.N,Net-(J1-Pin_5)*%
X147460000Y-116300000D03*
%TO.P,J1,6,Pin_6*%
%TO.N,Net-(J1-Pin_6)*%
X150000000Y-116300000D03*
%TO.P,J1,7,Pin_7*%
%TO.N,Net-(J1-Pin_7)*%
X152540000Y-116300000D03*
%TO.P,J1,8,Pin_8*%
%TO.N,Net-(J1-Pin_8)*%
X155080000Y-116300000D03*
%TO.P,J1,9,Pin_9*%
%TO.N,Net-(J1-Pin_9)*%
X157620000Y-116300000D03*
%TO.P,J1,10,Pin_10*%
%TO.N,Net-(J1-Pin_10)*%
X160160000Y-116300000D03*
%TO.P,J1,11,Pin_11*%
%TO.N,Net-(J1-Pin_11)*%
X162700000Y-116300000D03*
%TD*%
D15*
%TO.N,Net-(J5-Pin_1)*%
X150000000Y-100000000D03*
%TD*%
D16*
%TO.N,Net-(J4-Pin_11)*%
X145384000Y-101016000D02*
X133700000Y-112700000D01*
X147824200Y-101016000D02*
X145384000Y-101016000D01*
%TO.N,Net-(J4-Pin_10)*%
X143047200Y-100812800D02*
X133700000Y-110160000D01*
X147824200Y-100812800D02*
X143047200Y-100812800D01*
%TO.N,Net-(J4-Pin_9)*%
X147824200Y-100609600D02*
X140710400Y-100609600D01*
X140710400Y-100609600D02*
X133700000Y-107620000D01*
%TO.N,Net-(J4-Pin_8)*%
X147824200Y-100406400D02*
X138373600Y-100406400D01*
X138373600Y-100406400D02*
X133700000Y-105080000D01*
%TO.N,Net-(J4-Pin_7)*%
X136036800Y-100203200D02*
X133700000Y-102540000D01*
X147824200Y-100203200D02*
X136036800Y-100203200D01*
%TO.N,Net-(J4-Pin_6)*%
X147824200Y-100000000D02*
X133700000Y-100000000D01*
%TO.N,Net-(J4-Pin_5)*%
X136036800Y-99796800D02*
X133700000Y-97460000D01*
X147824200Y-99796800D02*
X136036800Y-99796800D01*
%TO.N,Net-(J4-Pin_4)*%
X138373600Y-99593600D02*
X133700000Y-94920000D01*
X147824200Y-99593600D02*
X138373600Y-99593600D01*
%TO.N,Net-(J4-Pin_3)*%
X140710400Y-99390400D02*
X133700000Y-92380000D01*
X147824200Y-99390400D02*
X140710400Y-99390400D01*
%TO.N,Net-(J4-Pin_2)*%
X143047200Y-99187200D02*
X133700000Y-89840000D01*
X147824200Y-99187200D02*
X143047200Y-99187200D01*
%TO.N,Net-(J4-Pin_1)*%
X145384000Y-98984000D02*
X133700000Y-87300000D01*
X147824200Y-98984000D02*
X145384000Y-98984000D01*
%TO.N,Net-(J3-Pin_11)*%
X148984000Y-95384000D02*
X137300000Y-83700000D01*
X148984000Y-97824200D02*
X148984000Y-95384000D01*
%TO.N,Net-(J3-Pin_10)*%
X149187200Y-93047200D02*
X139840000Y-83700000D01*
X149187200Y-97824200D02*
X149187200Y-93047200D01*
%TO.N,Net-(J3-Pin_9)*%
X149390400Y-90710400D02*
X142380000Y-83700000D01*
X149390400Y-97824200D02*
X149390400Y-90710400D01*
%TO.N,Net-(J3-Pin_8)*%
X149593600Y-88373600D02*
X144920000Y-83700000D01*
X149593600Y-97824200D02*
X149593600Y-88373600D01*
%TO.N,Net-(J3-Pin_7)*%
X149796800Y-97824200D02*
X149796800Y-86036800D01*
X149796800Y-86036800D02*
X147460000Y-83700000D01*
%TO.N,Net-(J3-Pin_6)*%
X150000000Y-97824200D02*
X150000000Y-83700000D01*
%TO.N,Net-(J3-Pin_5)*%
X150203200Y-86036800D02*
X152540000Y-83700000D01*
X150203200Y-97824200D02*
X150203200Y-86036800D01*
%TO.N,Net-(J3-Pin_4)*%
X150406400Y-88373600D02*
X155080000Y-83700000D01*
X150406400Y-97824200D02*
X150406400Y-88373600D01*
%TO.N,Net-(J3-Pin_3)*%
X150609600Y-90710400D02*
X157620000Y-83700000D01*
X150609600Y-97824200D02*
X150609600Y-90710400D01*
%TO.N,Net-(J3-Pin_2)*%
X150812800Y-93047200D02*
X160160000Y-83700000D01*
X150812800Y-97824200D02*
X150812800Y-93047200D01*
%TO.N,Net-(J3-Pin_1)*%
X151016000Y-95384000D02*
X162700000Y-83700000D01*
X151016000Y-97824200D02*
X151016000Y-95384000D01*
%TO.N,Net-(J2-Pin_11)*%
X154616000Y-98984000D02*
X166300000Y-87300000D01*
X152175800Y-98984000D02*
X154616000Y-98984000D01*
%TO.N,Net-(J2-Pin_10)*%
X156952800Y-99187200D02*
X166300000Y-89840000D01*
X152175800Y-99187200D02*
X156952800Y-99187200D01*
%TO.N,Net-(J2-Pin_9)*%
X152175800Y-99390400D02*
X159289600Y-99390400D01*
X159289600Y-99390400D02*
X166300000Y-92380000D01*
%TO.N,Net-(J2-Pin_8)*%
X161626400Y-99593600D02*
X166300000Y-94920000D01*
X152175800Y-99593600D02*
X161626400Y-99593600D01*
%TO.N,Net-(J2-Pin_7)*%
X163963200Y-99796800D02*
X166300000Y-97460000D01*
X152175800Y-99796800D02*
X163963200Y-99796800D01*
%TO.N,Net-(J2-Pin_6)*%
X152175800Y-100000000D02*
X166300000Y-100000000D01*
%TO.N,Net-(J2-Pin_5)*%
X152175800Y-100203200D02*
X163963200Y-100203200D01*
X163963200Y-100203200D02*
X166300000Y-102540000D01*
%TO.N,Net-(J2-Pin_4)*%
X161626400Y-100406400D02*
X166300000Y-105080000D01*
X152175800Y-100406400D02*
X161626400Y-100406400D01*
%TO.N,Net-(J2-Pin_3)*%
X152175800Y-100609600D02*
X159289600Y-100609600D01*
X159289600Y-100609600D02*
X166300000Y-107620000D01*
%TO.N,Net-(J2-Pin_2)*%
X156952800Y-100812800D02*
X166300000Y-110160000D01*
X152175800Y-100812800D02*
X156952800Y-100812800D01*
%TO.N,Net-(J2-Pin_1)*%
X152175800Y-101016000D02*
X154616000Y-101016000D01*
X154616000Y-101016000D02*
X166300000Y-112700000D01*
%TO.N,Net-(J1-Pin_11)*%
X151016000Y-104616000D02*
X162700000Y-116300000D01*
X151016000Y-102175800D02*
X151016000Y-104616000D01*
%TO.N,Net-(J1-Pin_10)*%
X150812800Y-106952800D02*
X160160000Y-116300000D01*
X150812800Y-102175800D02*
X150812800Y-106952800D01*
%TO.N,Net-(J1-Pin_9)*%
X150609600Y-109289600D02*
X157620000Y-116300000D01*
X150609600Y-102175800D02*
X150609600Y-109289600D01*
%TO.N,Net-(J1-Pin_8)*%
X150406400Y-111626400D02*
X155080000Y-116300000D01*
X150406400Y-102175800D02*
X150406400Y-111626400D01*
%TO.N,Net-(J1-Pin_7)*%
X150203200Y-113963200D02*
X152540000Y-116300000D01*
X150203200Y-102175800D02*
X150203200Y-113963200D01*
%TO.N,Net-(J1-Pin_6)*%
X150000000Y-102175800D02*
X150000000Y-116300000D01*
%TO.N,Net-(J1-Pin_5)*%
X149796800Y-113963200D02*
X147460000Y-116300000D01*
X149796800Y-102175800D02*
X149796800Y-113963200D01*
%TO.N,Net-(J1-Pin_4)*%
X149593600Y-111626400D02*
X144920000Y-116300000D01*
X149593600Y-102175800D02*
X149593600Y-111626400D01*
%TO.N,Net-(J1-Pin_3)*%
X149390400Y-109289600D02*
X142380000Y-116300000D01*
X149390400Y-102175800D02*
X149390400Y-109289600D01*
%TO.N,Net-(J1-Pin_2)*%
X149187200Y-106952800D02*
X139840000Y-116300000D01*
X149187200Y-102175800D02*
X149187200Y-106952800D01*
%TO.N,Net-(J1-Pin_1)*%
X148984000Y-104616000D02*
X137300000Y-116300000D01*
X148984000Y-102175800D02*
X148984000Y-104616000D01*
%TD*%
M02*
