%TF.GenerationSoftware,KiCad,Pcbnew,8.0.8*%
%TF.CreationDate,2025-02-10T18:58:52+09:00*%
%TF.ProjectId,OpenMPW-TR10,4f70656e-4d50-4572-9d54-5231302e6b69,rev?*%
%TF.SameCoordinates,Original*%
%TF.FileFunction,Legend,Top*%
%TF.FilePolarity,Positive*%
%FSLAX46Y46*%
G04 Gerber Fmt 4.6, Leading zero omitted, Abs format (unit mm)*
G04 Created by KiCad (PCBNEW 8.0.8) date 2025-02-10 18:58:52*
%MOMM*%
%LPD*%
G01*
G04 APERTURE LIST*
%ADD10C,0.100000*%
%ADD11C,0.150000*%
%ADD12C,0.120000*%
G04 APERTURE END LIST*
D10*
X138041353Y-81477580D02*
X137422306Y-81477580D01*
X137422306Y-81477580D02*
X137755639Y-81096628D01*
X137755639Y-81096628D02*
X137612782Y-81096628D01*
X137612782Y-81096628D02*
X137517544Y-81049009D01*
X137517544Y-81049009D02*
X137469925Y-81001390D01*
X137469925Y-81001390D02*
X137422306Y-80906152D01*
X137422306Y-80906152D02*
X137422306Y-80668057D01*
X137422306Y-80668057D02*
X137469925Y-80572819D01*
X137469925Y-80572819D02*
X137517544Y-80525200D01*
X137517544Y-80525200D02*
X137612782Y-80477580D01*
X137612782Y-80477580D02*
X137898496Y-80477580D01*
X137898496Y-80477580D02*
X137993734Y-80525200D01*
X137993734Y-80525200D02*
X138041353Y-80572819D01*
X137088972Y-81477580D02*
X136469925Y-81477580D01*
X136469925Y-81477580D02*
X136803258Y-81096628D01*
X136803258Y-81096628D02*
X136660401Y-81096628D01*
X136660401Y-81096628D02*
X136565163Y-81049009D01*
X136565163Y-81049009D02*
X136517544Y-81001390D01*
X136517544Y-81001390D02*
X136469925Y-80906152D01*
X136469925Y-80906152D02*
X136469925Y-80668057D01*
X136469925Y-80668057D02*
X136517544Y-80572819D01*
X136517544Y-80572819D02*
X136565163Y-80525200D01*
X136565163Y-80525200D02*
X136660401Y-80477580D01*
X136660401Y-80477580D02*
X136946115Y-80477580D01*
X136946115Y-80477580D02*
X137041353Y-80525200D01*
X137041353Y-80525200D02*
X137088972Y-80572819D01*
X131507580Y-86348646D02*
X131507580Y-86967693D01*
X131507580Y-86967693D02*
X131126628Y-86634360D01*
X131126628Y-86634360D02*
X131126628Y-86777217D01*
X131126628Y-86777217D02*
X131079009Y-86872455D01*
X131079009Y-86872455D02*
X131031390Y-86920074D01*
X131031390Y-86920074D02*
X130936152Y-86967693D01*
X130936152Y-86967693D02*
X130698057Y-86967693D01*
X130698057Y-86967693D02*
X130602819Y-86920074D01*
X130602819Y-86920074D02*
X130555200Y-86872455D01*
X130555200Y-86872455D02*
X130507580Y-86777217D01*
X130507580Y-86777217D02*
X130507580Y-86491503D01*
X130507580Y-86491503D02*
X130555200Y-86396265D01*
X130555200Y-86396265D02*
X130602819Y-86348646D01*
X131174247Y-87824836D02*
X130507580Y-87824836D01*
X131555200Y-87586741D02*
X130840914Y-87348646D01*
X130840914Y-87348646D02*
X130840914Y-87967693D01*
X168547657Y-87803734D02*
X168500038Y-87756115D01*
X168500038Y-87756115D02*
X168452419Y-87660877D01*
X168452419Y-87660877D02*
X168452419Y-87422782D01*
X168452419Y-87422782D02*
X168500038Y-87327544D01*
X168500038Y-87327544D02*
X168547657Y-87279925D01*
X168547657Y-87279925D02*
X168642895Y-87232306D01*
X168642895Y-87232306D02*
X168738133Y-87232306D01*
X168738133Y-87232306D02*
X168880990Y-87279925D01*
X168880990Y-87279925D02*
X169452419Y-87851353D01*
X169452419Y-87851353D02*
X169452419Y-87232306D01*
X168547657Y-86851353D02*
X168500038Y-86803734D01*
X168500038Y-86803734D02*
X168452419Y-86708496D01*
X168452419Y-86708496D02*
X168452419Y-86470401D01*
X168452419Y-86470401D02*
X168500038Y-86375163D01*
X168500038Y-86375163D02*
X168547657Y-86327544D01*
X168547657Y-86327544D02*
X168642895Y-86279925D01*
X168642895Y-86279925D02*
X168738133Y-86279925D01*
X168738133Y-86279925D02*
X168880990Y-86327544D01*
X168880990Y-86327544D02*
X169452419Y-86898972D01*
X169452419Y-86898972D02*
X169452419Y-86279925D01*
X131114247Y-112682455D02*
X130447580Y-112682455D01*
X131495200Y-112444360D02*
X130780914Y-112206265D01*
X130780914Y-112206265D02*
X130780914Y-112825312D01*
X131114247Y-113634836D02*
X130447580Y-113634836D01*
X131495200Y-113396741D02*
X130780914Y-113158646D01*
X130780914Y-113158646D02*
X130780914Y-113777693D01*
X169522419Y-112942306D02*
X169522419Y-113513734D01*
X169522419Y-113228020D02*
X168522419Y-113228020D01*
X168522419Y-113228020D02*
X168665276Y-113323258D01*
X168665276Y-113323258D02*
X168760514Y-113418496D01*
X168760514Y-113418496D02*
X168808133Y-113513734D01*
X168617657Y-112561353D02*
X168570038Y-112513734D01*
X168570038Y-112513734D02*
X168522419Y-112418496D01*
X168522419Y-112418496D02*
X168522419Y-112180401D01*
X168522419Y-112180401D02*
X168570038Y-112085163D01*
X168570038Y-112085163D02*
X168617657Y-112037544D01*
X168617657Y-112037544D02*
X168712895Y-111989925D01*
X168712895Y-111989925D02*
X168808133Y-111989925D01*
X168808133Y-111989925D02*
X168950990Y-112037544D01*
X168950990Y-112037544D02*
X169522419Y-112608972D01*
X169522419Y-112608972D02*
X169522419Y-111989925D01*
X137577693Y-119382419D02*
X137006265Y-119382419D01*
X137291979Y-119382419D02*
X137291979Y-118382419D01*
X137291979Y-118382419D02*
X137196741Y-118525276D01*
X137196741Y-118525276D02*
X137101503Y-118620514D01*
X137101503Y-118620514D02*
X137006265Y-118668133D01*
X162927693Y-119442419D02*
X162356265Y-119442419D01*
X162641979Y-119442419D02*
X162641979Y-118442419D01*
X162641979Y-118442419D02*
X162546741Y-118585276D01*
X162546741Y-118585276D02*
X162451503Y-118680514D01*
X162451503Y-118680514D02*
X162356265Y-118728133D01*
X163880074Y-119442419D02*
X163308646Y-119442419D01*
X163594360Y-119442419D02*
X163594360Y-118442419D01*
X163594360Y-118442419D02*
X163499122Y-118585276D01*
X163499122Y-118585276D02*
X163403884Y-118680514D01*
X163403884Y-118680514D02*
X163308646Y-118728133D01*
X142432455Y-121895752D02*
X142432455Y-122562419D01*
X142194360Y-121514800D02*
X141956265Y-122229085D01*
X141956265Y-122229085D02*
X142575312Y-122229085D01*
X143432455Y-121562419D02*
X142956265Y-121562419D01*
X142956265Y-121562419D02*
X142908646Y-122038609D01*
X142908646Y-122038609D02*
X142956265Y-121990990D01*
X142956265Y-121990990D02*
X143051503Y-121943371D01*
X143051503Y-121943371D02*
X143289598Y-121943371D01*
X143289598Y-121943371D02*
X143384836Y-121990990D01*
X143384836Y-121990990D02*
X143432455Y-122038609D01*
X143432455Y-122038609D02*
X143480074Y-122133847D01*
X143480074Y-122133847D02*
X143480074Y-122371942D01*
X143480074Y-122371942D02*
X143432455Y-122467180D01*
X143432455Y-122467180D02*
X143384836Y-122514800D01*
X143384836Y-122514800D02*
X143289598Y-122562419D01*
X143289598Y-122562419D02*
X143051503Y-122562419D01*
X143051503Y-122562419D02*
X142956265Y-122514800D01*
X142956265Y-122514800D02*
X142908646Y-122467180D01*
X163433734Y-81382342D02*
X163386115Y-81429961D01*
X163386115Y-81429961D02*
X163290877Y-81477580D01*
X163290877Y-81477580D02*
X163052782Y-81477580D01*
X163052782Y-81477580D02*
X162957544Y-81429961D01*
X162957544Y-81429961D02*
X162909925Y-81382342D01*
X162909925Y-81382342D02*
X162862306Y-81287104D01*
X162862306Y-81287104D02*
X162862306Y-81191866D01*
X162862306Y-81191866D02*
X162909925Y-81049009D01*
X162909925Y-81049009D02*
X163481353Y-80477580D01*
X163481353Y-80477580D02*
X162862306Y-80477580D01*
X162528972Y-81477580D02*
X161909925Y-81477580D01*
X161909925Y-81477580D02*
X162243258Y-81096628D01*
X162243258Y-81096628D02*
X162100401Y-81096628D01*
X162100401Y-81096628D02*
X162005163Y-81049009D01*
X162005163Y-81049009D02*
X161957544Y-81001390D01*
X161957544Y-81001390D02*
X161909925Y-80906152D01*
X161909925Y-80906152D02*
X161909925Y-80668057D01*
X161909925Y-80668057D02*
X161957544Y-80572819D01*
X161957544Y-80572819D02*
X162005163Y-80525200D01*
X162005163Y-80525200D02*
X162100401Y-80477580D01*
X162100401Y-80477580D02*
X162386115Y-80477580D01*
X162386115Y-80477580D02*
X162481353Y-80525200D01*
X162481353Y-80525200D02*
X162528972Y-80572819D01*
D11*
X145404819Y-100761904D02*
X146214342Y-100761904D01*
X146214342Y-100761904D02*
X146309580Y-100714285D01*
X146309580Y-100714285D02*
X146357200Y-100666666D01*
X146357200Y-100666666D02*
X146404819Y-100571428D01*
X146404819Y-100571428D02*
X146404819Y-100380952D01*
X146404819Y-100380952D02*
X146357200Y-100285714D01*
X146357200Y-100285714D02*
X146309580Y-100238095D01*
X146309580Y-100238095D02*
X146214342Y-100190476D01*
X146214342Y-100190476D02*
X145404819Y-100190476D01*
X146404819Y-99190476D02*
X146404819Y-99761904D01*
X146404819Y-99476190D02*
X145404819Y-99476190D01*
X145404819Y-99476190D02*
X145547676Y-99571428D01*
X145547676Y-99571428D02*
X145642914Y-99666666D01*
X145642914Y-99666666D02*
X145690533Y-99761904D01*
X134424819Y-122333333D02*
X135139104Y-122333333D01*
X135139104Y-122333333D02*
X135281961Y-122380952D01*
X135281961Y-122380952D02*
X135377200Y-122476190D01*
X135377200Y-122476190D02*
X135424819Y-122619047D01*
X135424819Y-122619047D02*
X135424819Y-122714285D01*
X134424819Y-121380952D02*
X134424819Y-121857142D01*
X134424819Y-121857142D02*
X134901009Y-121904761D01*
X134901009Y-121904761D02*
X134853390Y-121857142D01*
X134853390Y-121857142D02*
X134805771Y-121761904D01*
X134805771Y-121761904D02*
X134805771Y-121523809D01*
X134805771Y-121523809D02*
X134853390Y-121428571D01*
X134853390Y-121428571D02*
X134901009Y-121380952D01*
X134901009Y-121380952D02*
X134996247Y-121333333D01*
X134996247Y-121333333D02*
X135234342Y-121333333D01*
X135234342Y-121333333D02*
X135329580Y-121380952D01*
X135329580Y-121380952D02*
X135377200Y-121428571D01*
X135377200Y-121428571D02*
X135424819Y-121523809D01*
X135424819Y-121523809D02*
X135424819Y-121761904D01*
X135424819Y-121761904D02*
X135377200Y-121857142D01*
X135377200Y-121857142D02*
X135329580Y-121904761D01*
X129238095Y-116254819D02*
X129238095Y-115254819D01*
X129238095Y-115731009D02*
X129809523Y-115731009D01*
X129809523Y-116254819D02*
X129809523Y-115254819D01*
X130809523Y-116254819D02*
X130238095Y-116254819D01*
X130523809Y-116254819D02*
X130523809Y-115254819D01*
X130523809Y-115254819D02*
X130428571Y-115397676D01*
X130428571Y-115397676D02*
X130333333Y-115492914D01*
X130333333Y-115492914D02*
X130238095Y-115540533D01*
X133366666Y-84424819D02*
X133366666Y-85139104D01*
X133366666Y-85139104D02*
X133319047Y-85281961D01*
X133319047Y-85281961D02*
X133223809Y-85377200D01*
X133223809Y-85377200D02*
X133080952Y-85424819D01*
X133080952Y-85424819D02*
X132985714Y-85424819D01*
X134271428Y-84758152D02*
X134271428Y-85424819D01*
X134033333Y-84377200D02*
X133795238Y-85091485D01*
X133795238Y-85091485D02*
X134414285Y-85091485D01*
X165966666Y-114484819D02*
X165966666Y-115199104D01*
X165966666Y-115199104D02*
X165919047Y-115341961D01*
X165919047Y-115341961D02*
X165823809Y-115437200D01*
X165823809Y-115437200D02*
X165680952Y-115484819D01*
X165680952Y-115484819D02*
X165585714Y-115484819D01*
X166395238Y-114580057D02*
X166442857Y-114532438D01*
X166442857Y-114532438D02*
X166538095Y-114484819D01*
X166538095Y-114484819D02*
X166776190Y-114484819D01*
X166776190Y-114484819D02*
X166871428Y-114532438D01*
X166871428Y-114532438D02*
X166919047Y-114580057D01*
X166919047Y-114580057D02*
X166966666Y-114675295D01*
X166966666Y-114675295D02*
X166966666Y-114770533D01*
X166966666Y-114770533D02*
X166919047Y-114913390D01*
X166919047Y-114913390D02*
X166347619Y-115484819D01*
X166347619Y-115484819D02*
X166966666Y-115484819D01*
X164484819Y-84033333D02*
X165199104Y-84033333D01*
X165199104Y-84033333D02*
X165341961Y-84080952D01*
X165341961Y-84080952D02*
X165437200Y-84176190D01*
X165437200Y-84176190D02*
X165484819Y-84319047D01*
X165484819Y-84319047D02*
X165484819Y-84414285D01*
X164484819Y-83652380D02*
X164484819Y-83033333D01*
X164484819Y-83033333D02*
X164865771Y-83366666D01*
X164865771Y-83366666D02*
X164865771Y-83223809D01*
X164865771Y-83223809D02*
X164913390Y-83128571D01*
X164913390Y-83128571D02*
X164961009Y-83080952D01*
X164961009Y-83080952D02*
X165056247Y-83033333D01*
X165056247Y-83033333D02*
X165294342Y-83033333D01*
X165294342Y-83033333D02*
X165389580Y-83080952D01*
X165389580Y-83080952D02*
X165437200Y-83128571D01*
X165437200Y-83128571D02*
X165484819Y-83223809D01*
X165484819Y-83223809D02*
X165484819Y-83509523D01*
X165484819Y-83509523D02*
X165437200Y-83604761D01*
X165437200Y-83604761D02*
X165389580Y-83652380D01*
X169238095Y-116254819D02*
X169238095Y-115254819D01*
X169238095Y-115731009D02*
X169809523Y-115731009D01*
X169809523Y-116254819D02*
X169809523Y-115254819D01*
X170238095Y-115350057D02*
X170285714Y-115302438D01*
X170285714Y-115302438D02*
X170380952Y-115254819D01*
X170380952Y-115254819D02*
X170619047Y-115254819D01*
X170619047Y-115254819D02*
X170714285Y-115302438D01*
X170714285Y-115302438D02*
X170761904Y-115350057D01*
X170761904Y-115350057D02*
X170809523Y-115445295D01*
X170809523Y-115445295D02*
X170809523Y-115540533D01*
X170809523Y-115540533D02*
X170761904Y-115683390D01*
X170761904Y-115683390D02*
X170190476Y-116254819D01*
X170190476Y-116254819D02*
X170809523Y-116254819D01*
X169238095Y-76254819D02*
X169238095Y-75254819D01*
X169238095Y-75731009D02*
X169809523Y-75731009D01*
X169809523Y-76254819D02*
X169809523Y-75254819D01*
X170190476Y-75254819D02*
X170809523Y-75254819D01*
X170809523Y-75254819D02*
X170476190Y-75635771D01*
X170476190Y-75635771D02*
X170619047Y-75635771D01*
X170619047Y-75635771D02*
X170714285Y-75683390D01*
X170714285Y-75683390D02*
X170761904Y-75731009D01*
X170761904Y-75731009D02*
X170809523Y-75826247D01*
X170809523Y-75826247D02*
X170809523Y-76064342D01*
X170809523Y-76064342D02*
X170761904Y-76159580D01*
X170761904Y-76159580D02*
X170714285Y-76207200D01*
X170714285Y-76207200D02*
X170619047Y-76254819D01*
X170619047Y-76254819D02*
X170333333Y-76254819D01*
X170333333Y-76254819D02*
X170238095Y-76207200D01*
X170238095Y-76207200D02*
X170190476Y-76159580D01*
X129238095Y-76254819D02*
X129238095Y-75254819D01*
X129238095Y-75731009D02*
X129809523Y-75731009D01*
X129809523Y-76254819D02*
X129809523Y-75254819D01*
X130714285Y-75588152D02*
X130714285Y-76254819D01*
X130476190Y-75207200D02*
X130238095Y-75921485D01*
X130238095Y-75921485D02*
X130857142Y-75921485D01*
X134424819Y-116633333D02*
X135139104Y-116633333D01*
X135139104Y-116633333D02*
X135281961Y-116680952D01*
X135281961Y-116680952D02*
X135377200Y-116776190D01*
X135377200Y-116776190D02*
X135424819Y-116919047D01*
X135424819Y-116919047D02*
X135424819Y-117014285D01*
X135424819Y-115633333D02*
X135424819Y-116204761D01*
X135424819Y-115919047D02*
X134424819Y-115919047D01*
X134424819Y-115919047D02*
X134567676Y-116014285D01*
X134567676Y-116014285D02*
X134662914Y-116109523D01*
X134662914Y-116109523D02*
X134710533Y-116204761D01*
D12*
%TO.C,U1*%
X152650000Y-102650000D02*
X151219200Y-102650000D01*
X147350000Y-101219200D02*
X147350000Y-102824200D01*
X152650000Y-101219200D02*
X152650000Y-102650000D01*
X147350000Y-98780800D02*
X147350000Y-97350000D01*
X152650000Y-98780800D02*
X152650000Y-97350000D01*
X147350000Y-97350000D02*
X148780800Y-97350000D01*
X152650000Y-97350000D02*
X151219200Y-97350000D01*
%TO.C,J5*%
X135970000Y-123330000D02*
X135970000Y-122000000D01*
X137300000Y-123330000D02*
X135970000Y-123330000D01*
X138570000Y-120670000D02*
X141170000Y-120670000D01*
X138570000Y-123330000D02*
X138570000Y-120670000D01*
X138570000Y-123330000D02*
X141170000Y-123330000D01*
X141170000Y-123330000D02*
X141170000Y-120670000D01*
%TO.C,J4*%
X132370000Y-85970000D02*
X133700000Y-85970000D01*
X132370000Y-87300000D02*
X132370000Y-85970000D01*
X132370000Y-88570000D02*
X132370000Y-114030000D01*
X132370000Y-88570000D02*
X135030000Y-88570000D01*
X132370000Y-114030000D02*
X135030000Y-114030000D01*
X135030000Y-88570000D02*
X135030000Y-114030000D01*
%TO.C,J2*%
X164970000Y-111430000D02*
X164970000Y-85970000D01*
X167630000Y-85970000D02*
X164970000Y-85970000D01*
X167630000Y-111430000D02*
X164970000Y-111430000D01*
X167630000Y-111430000D02*
X167630000Y-85970000D01*
X167630000Y-112700000D02*
X167630000Y-114030000D01*
X167630000Y-114030000D02*
X166300000Y-114030000D01*
%TO.C,J3*%
X135970000Y-82370000D02*
X135970000Y-85030000D01*
X161430000Y-82370000D02*
X135970000Y-82370000D01*
X161430000Y-82370000D02*
X161430000Y-85030000D01*
X161430000Y-85030000D02*
X135970000Y-85030000D01*
X162700000Y-82370000D02*
X164030000Y-82370000D01*
X164030000Y-82370000D02*
X164030000Y-83700000D01*
%TO.C,J1*%
X135970000Y-117630000D02*
X135970000Y-116300000D01*
X137300000Y-117630000D02*
X135970000Y-117630000D01*
X138570000Y-114970000D02*
X164030000Y-114970000D01*
X138570000Y-117630000D02*
X138570000Y-114970000D01*
X138570000Y-117630000D02*
X164030000Y-117630000D01*
X164030000Y-117630000D02*
X164030000Y-114970000D01*
%TD*%
M02*
