%TF.GenerationSoftware,KiCad,Pcbnew,8.0.8*%
%TF.CreationDate,2025-02-10T15:05:01+09:00*%
%TF.ProjectId,OpenMPW-TR10,4f70656e-4d50-4572-9d54-5231302e6b69,rev?*%
%TF.SameCoordinates,Original*%
%TF.FileFunction,Paste,Top*%
%TF.FilePolarity,Positive*%
%FSLAX46Y46*%
G04 Gerber Fmt 4.6, Leading zero omitted, Abs format (unit mm)*
G04 Created by KiCad (PCBNEW 8.0.8) date 2025-02-10 15:05:01*
%MOMM*%
%LPD*%
G01*
G04 APERTURE LIST*
%ADD10R,0.875000X0.875000*%
%ADD11O,0.076200X0.673800*%
%ADD12O,0.673800X0.076200*%
G04 APERTURE END LIST*
D10*
%TO.C,U1*%
X148687500Y-101312500D03*
X149562500Y-101312500D03*
X150437500Y-101312500D03*
X151312500Y-101312500D03*
X148687500Y-100437500D03*
X149562500Y-100437500D03*
X150437500Y-100437500D03*
X151312500Y-100437500D03*
X148687500Y-99562500D03*
X149562500Y-99562500D03*
X150437500Y-99562500D03*
X151312500Y-99562500D03*
X148687500Y-98687500D03*
X149562500Y-98687500D03*
X150437500Y-98687500D03*
X151312500Y-98687500D03*
D11*
X149000000Y-102163100D03*
X149200000Y-102163100D03*
X149400000Y-102163100D03*
X149600000Y-102163100D03*
X149800000Y-102163100D03*
X150000000Y-102163100D03*
X150200000Y-102163100D03*
X150400000Y-102163100D03*
X150600000Y-102163100D03*
X150800000Y-102163100D03*
X151000000Y-102163100D03*
D12*
X152163100Y-101000000D03*
X152163100Y-100800000D03*
X152163100Y-100600000D03*
X152163100Y-100400000D03*
X152163100Y-100200000D03*
X152163100Y-100000000D03*
X152163100Y-99800000D03*
X152163100Y-99600000D03*
X152163100Y-99400000D03*
X152163100Y-99200000D03*
X152163100Y-99000000D03*
D11*
X151000000Y-97836900D03*
X150800000Y-97836900D03*
X150600000Y-97836900D03*
X150400000Y-97836900D03*
X150200000Y-97836900D03*
X150000000Y-97836900D03*
X149800000Y-97836900D03*
X149600000Y-97836900D03*
X149400000Y-97836900D03*
X149200000Y-97836900D03*
X149000000Y-97836900D03*
D12*
X147836900Y-99000000D03*
X147836900Y-99200000D03*
X147836900Y-99400000D03*
X147836900Y-99600000D03*
X147836900Y-99800000D03*
X147836900Y-100000000D03*
X147836900Y-100200000D03*
X147836900Y-100400000D03*
X147836900Y-100600000D03*
X147836900Y-100800000D03*
X147836900Y-101000000D03*
%TD*%
M02*
